HIERARCHY
ROOT Hips
{
  OFFSET 3.13124 94.3669 -3.18751
  CHANNELS  6 Xposition Yposition Zposition Zrotation Xrotation Yrotation
  JOINT LeftUpLeg
  {
    OFFSET 8.64259 1.95398 -2.38835
    CHANNELS 3 Zrotation Xrotation Yrotation
    JOINT LeftLeg
    {
      OFFSET 43.7702 0 0
      CHANNELS 3 Zrotation Xrotation Yrotation
      JOINT LeftFoot
      {
        OFFSET 40.6238 0 0
        CHANNELS 3 Zrotation Xrotation Yrotation
        JOINT LeftToeBase
        {
          OFFSET 12.7242 0 0
          CHANNELS 3 Zrotation Xrotation Yrotation
          End Site
          {
            OFFSET 0 0 0
          }
        }
      }
    }
  }
  JOINT RightUpLeg
  {
    OFFSET -8.2249 1.95398 -2.59336
    CHANNELS 3 Zrotation Xrotation Yrotation
    JOINT RightLeg
    {
      OFFSET 43.5653 0 0
      CHANNELS 3 Zrotation Xrotation Yrotation
      JOINT RightFoot
      {
        OFFSET 40.6238 0 0
        CHANNELS 3 Zrotation Xrotation Yrotation
        JOINT RightToeBase
        {
          OFFSET 12.7242 0 0
          CHANNELS 3 Zrotation Xrotation Yrotation
          End Site
          {
            OFFSET 0 0 0
          }
        }
      }
    }
  }
  JOINT Spine
  {
    OFFSET 0.165834 0.87714 6.61349
    CHANNELS 3 Zrotation Xrotation Yrotation
    JOINT Spine1
    {
      OFFSET 7.38962 1.71661e-005 0
      CHANNELS 3 Zrotation Xrotation Yrotation
      JOINT Spine2
      {
        OFFSET 11.9445 1.14441e-005 0
        CHANNELS 3 Zrotation Xrotation Yrotation
        JOINT Spine3
        {
          OFFSET 14.7254 4.19617e-005 0
          CHANNELS 3 Zrotation Xrotation Yrotation
          JOINT Spine4
          {
            OFFSET 10.9679 0 0
            CHANNELS 3 Zrotation Xrotation Yrotation
            JOINT RightShoulder
            {
              OFFSET 2.46616 -1.6653 3.69651
              CHANNELS 3 Zrotation Xrotation Yrotation
              JOINT RightArm
              {
                OFFSET 13.0012 0 0
                CHANNELS 3 Zrotation Xrotation Yrotation
                JOINT RightForeArm
                {
                  OFFSET 28.7848 1.52588e-005 0
                  CHANNELS 3 Zrotation Xrotation Yrotation
                  JOINT RightHand
                  {
                    OFFSET 26.5688 1.52588e-005 0
                    CHANNELS 3 Zrotation Xrotation Yrotation
                    End Site
                    {
                      OFFSET 0 0 0
                    }
                  }
                }
              }
            }
            JOINT LeftShoulder
            {
              OFFSET 2.38034 -1.29275 -3.75231
              CHANNELS 3 Zrotation Xrotation Yrotation
              JOINT LeftArm
              {
                OFFSET 16.3182 6.10352e-005 0
                CHANNELS 3 Zrotation Xrotation Yrotation
                JOINT LeftForeArm
                {
                  OFFSET 27.0901 0 0
                  CHANNELS 3 Zrotation Xrotation Yrotation
                  JOINT LeftHand
                  {
                    OFFSET 24.5451 1.52588e-005 0
                    CHANNELS 3 Zrotation Xrotation Yrotation
                    End Site
                    {
                      OFFSET 0 0 0
                    }
                  }
                }
              }
            }
            JOINT Neck
            {
              OFFSET 5.0226 -0.0266342 0
              CHANNELS 3 Zrotation Xrotation Yrotation
              JOINT Head
              {
                OFFSET 6.69363 2.86102e-005 0
                CHANNELS 3 Zrotation Xrotation Yrotation
                End Site
                {
                  OFFSET 0 0 0
                }
              }
            }
          }
        }
      }
    }
  }
}
MOTION
Frames:	12
Frame Time:	0.0333333
0.721339 95.828 -5.53333 -149.528 -89.9991 -149.427 -171.688 2.82251 90.4299 -9.44191 7.97768 2.57965 63.6572 0.822742 0.404909 28.7808 4.99995e-006 2.59123e-006 -179.539 1.97285 91.0813 -7.75025 0.635332 0.0233145 62.8156 -1.12803 -0.566977 28.7808 1.568e-005 2.62151e-005 0.0080734 6.33538 -90.1016 14.1935 -0.00502521 9.39141e-005 2.52254 -0.00722302 8.70201e-005 -20.0126 -1.96767e-005 9.34436e-005 3.31554e-005 -1.87765e-005 9.02029e-005 100.977 -18.7797 -85.097 16.0434 46.6393 -41.5596 -3.27478 0.00467868 -4.91074 -5.37983 -0.320018 -0.0162405 -78.7914 -21.8868 94.7707 5.09144 -44.3279 -24.2928 -1.26262 46.3408 -0.00396229 0.787572 -0.0147198 -1.72163 1.75243 0.00527419 -0.0085731 -7.40969 0.00178398 -0.000690519 
0.757975 95.8279 -5.51499 -109.295 -89.9439 -109.164 -171.713 2.73121 90.4295 -9.32998 7.86295 2.57266 63.7112 0.883057 0.44306 28.7808 4.99995e-006 2.59123e-006 -179.533 1.62195 91.079 -7.07871 0.573858 0.0233143 62.5363 -1.06402 -0.523194 28.7808 1.568e-005 2.62151e-005 0.0102055 6.33488 -90.1289 14.1928 -0.00502521 -0.00183422 2.52182 -0.00722302 -0.00183011 -20.0133 0.000353224 -0.00180652 -0.000697573 0.000351634 -0.0018151 100.953 -18.9019 -85.1205 16.0457 46.6449 -41.5892 -3.27478 0.00467868 -4.91074 -5.37983 -0.320018 -0.0162405 -78.7787 -21.776 94.8436 5.01938 -44.3067 -24.355 -1.29369 46.2467 -0.00395549 0.924091 -0.0147206 -1.61875 1.72755 0.083245 -0.130011 -7.39161 0.0312712 -0.0150462 
0.755481 95.8184 -5.49214 -154.112 -89.8653 -153.985 -171.631 2.72528 90.4558 -9.56565 7.94074 2.5623 63.7905 0.857977 0.425675 28.7808 4.99995e-006 2.59123e-006 -179.532 1.9419 91.0864 -7.99638 0.609843 0.0233144 63.0131 -1.08494 -0.546683 28.7808 1.568e-005 2.62151e-005 0.0101953 6.33531 -90.1058 14.1754 -0.00416158 -0.0515938 2.50448 -0.00637292 -0.051341 -20.0307 0.0110433 -0.0506138 -0.0180139 0.0110487 -0.0506103 100.966 -18.8604 -85.116 16.0642 46.6041 -41.5829 -3.27478 0.00467868 -4.91074 -5.37983 -0.320018 -0.0162405 -78.8065 -21.8884 94.7384 5.11942 -44.3214 -24.2318 -1.35042 46.0397 -0.00394064 1.14865 -0.0147204 -1.64097 1.63712 0.0699853 -0.0274332 -7.39395 0.076291 -0.0703474 
0.811513 95.8476 -5.48206 -105.225 -89.8397 -105.121 -171.703 2.65879 90.4023 -9.29957 7.7673 2.51759 63.6129 0.763123 0.371408 28.7808 4.99995e-006 2.59123e-006 -179.554 1.4633 91.0165 -6.83017 0.468779 0.0233139 62.4334 -1.02695 -0.500738 28.7808 1.568e-005 2.62151e-005 0.0204448 6.33455 -90.1443 14.1927 0.00913347 -0.0556241 2.52177 0.00667264 -0.0559809 -20.0134 0.0254177 -0.0503148 -0.000739125 0.0254306 -0.0503044 100.949 -18.9774 -85.157 16.0891 46.5631 -41.611 -3.27478 0.00467868 -4.91074 -5.37983 -0.320018 -0.0162405 -78.7977 -21.7983 94.7494 5.03923 -44.3166 -24.2182 -1.28204 46.1856 -0.00395109 0.928555 -0.0147212 -1.52895 1.57268 0.099623 -0.0987859 -7.38791 0.111304 0.00736143 
0.839449 95.8601 -5.4853 -91.2252 -89.82 -91.1169 -171.717 2.69504 90.3943 -9.28581 7.6428 2.4882 63.5154 0.558279 0.251874 28.7808 4.99995e-006 2.59123e-006 -179.555 1.35526 91.0025 -6.5148 0.451641 0.0233138 62.2449 -1.04048 -0.505831 28.7808 1.568e-005 2.62151e-005 0.0252377 6.33431 -90.1518 14.2055 0.0146617 -0.0721771 2.5346 0.0114641 -0.0727486 -20.0006 0.0356657 -0.0644369 0.0121015 0.0356812 -0.0644254 100.929 -19.1359 -85.1944 16.0833 46.5706 -41.5987 -3.27478 0.00467868 -4.91074 -5.37983 -0.320018 -0.0162405 -78.825 -21.705 94.6832 4.96745 -44.2945 -24.1606 -1.24323 46.2779 -0.00395774 1.008 -0.0147207 -1.60223 1.46089 0.115336 -0.155449 -7.35432 0.13161 0.11752 
0.866728 95.857 -5.49578 -89.3233 -89.8272 -89.1753 -171.723 2.61721 90.4031 -9.10806 7.78537 2.51349 63.5764 0.931202 0.469853 28.7808 4.99995e-006 2.59123e-006 -179.542 1.06235 91.0229 -5.87909 0.4723 0.0233139 61.9309 -1.01583 -0.483657 28.7808 1.568e-005 2.62151e-005 0.0328215 6.3322 -90.1906 14.2095 0.0214184 -0.0860688 2.53857 0.0176026 -0.0869302 -19.9966 0.0462876 -0.0756503 0.0160879 0.046292 -0.0756532 100.903 -19.2562 -85.252 16.0596 46.5793 -41.4811 -3.27478 0.00467868 -4.91074 -5.37983 -0.320018 -0.0162405 -78.8683 -21.6455 94.5833 4.95803 -44.2731 -24.0927 -1.25076 46.1002 -0.00394497 0.980139 -0.0147196 -1.7469 1.30144 0.131258 -0.107414 -7.22994 0.141628 0.0864925 
0.888011 95.8797 -5.51064 -92.272 -89.8307 -92.1459 -171.713 2.66177 90.3898 -9.18142 7.69465 2.46701 63.4215 0.661603 0.310024 28.7808 4.99995e-006 2.59123e-006 -179.548 1.01359 90.9907 -5.77869 0.485824 0.0233139 61.8317 -1.06005 -0.510133 28.7808 1.568e-005 2.62151e-005 0.0363243 6.33135 -90.1766 14.2129 0.0286873 -0.0980196 2.54198 0.0243474 -0.0991914 -19.9932 0.0568229 -0.0848633 0.0195012 0.0568208 -0.0848679 100.859 -19.3897 -85.3532 16.0229 46.6133 -41.3616 -3.27478 0.00467868 -4.91074 -5.37983 -0.320018 -0.0162405 -78.9011 -21.6291 94.5083 4.95411 -44.2695 -24.0529 -1.25369 45.9979 -0.00393766 0.989294 -0.0147192 -1.79424 1.08031 0.145166 -0.0453359 -7.0152 0.143594 0.108675 
0.908126 95.8694 -5.53903 -102.457 -89.8517 -102.324 -171.691 2.6501 90.3841 -9.18952 7.8961 2.48878 63.5225 0.950145 0.476926 28.7808 4.99995e-006 2.59123e-006 -179.545 0.952564 90.9803 -5.68835 0.536645 0.0233141 61.9243 -0.841628 -0.383395 28.7808 1.568e-005 2.62151e-005 0.0412167 6.3298 -90.1757 14.2162 0.0362645 -0.113024 2.54522 0.0312513 -0.114515 -19.9899 0.0685501 -0.0968985 0.0227499 0.0685466 -0.0969055 100.83 -19.5022 -85.4173 15.996 46.6363 -41.2702 -3.27478 0.00467868 -4.91074 -5.37983 -0.320018 -0.0162405 -78.9486 -21.5923 94.4003 5.04125 -44.1944 -23.8651 -1.34395 45.9056 -0.00393111 1.14032 -0.0147198 -1.72209 0.854889 0.142713 0.0361867 -6.78788 0.12872 0.128642 
0.938306 95.8576 -5.57239 -94.183 -89.8665 -94.0317 -171.71 2.61887 90.3792 -9.03267 7.91287 2.48191 63.5328 1.0327 0.526909 28.7808 4.99995e-006 2.59123e-006 -179.562 1.09166 90.9831 -5.86795 0.500605 0.0233312 61.8865 -1.0122 -0.481425 28.7808 1.568e-005 2.62151e-005 0.0482948 6.32735 -90.2072 14.2189 0.0427517 -0.128261 2.54798 0.0370688 -0.130026 -19.9871 0.0793223 -0.109481 0.0255142 0.0793362 -0.109482 100.812 -19.5725 -85.4549 16.0172 46.5905 -41.2497 -3.27478 0.00467868 -4.91074 -5.37983 -0.320018 -0.0162405 -78.9722 -21.6297 94.3495 5.08196 -44.1588 -23.7426 -1.35217 45.9693 -0.00393563 1.32808 -0.0147176 -1.98373 0.752637 0.15003 0.150559 -6.74278 0.119473 0.152505 
0.967599 95.8619 -5.61264 -98.1707 -89.8983 -98.0248 -171.702 2.65705 90.3619 -9.067 7.9881 2.4706 63.4994 1.11618 0.573122 28.7808 4.99995e-006 2.59123e-006 -179.568 1.06079 90.9547 -5.77695 0.513591 0.0242685 61.8865 -0.862769 -0.394158 28.7808 1.568e-005 2.62151e-005 0.0491879 6.32658 -90.1999 14.2209 0.0460527 -0.134981 2.54993 0.0400557 -0.136819 -19.9852 0.0826949 -0.115363 0.0274544 0.0826879 -0.115379 100.786 -19.6984 -85.5105 16.0153 46.5881 -41.2327 -3.27478 0.00467868 -4.91074 -5.37983 -0.320018 -0.0162405 -78.9626 -21.583 94.3684 5.04793 -44.0794 -23.6503 -1.39511 45.8013 -0.00392375 1.14749 -0.0147709 -1.90759 0.679253 0.121322 0.0659559 -6.65533 0.0943 0.347821 
0.997977 95.8756 -5.65697 -145.787 -89.9459 -145.661 -171.718 2.69476 90.3193 -9.14844 8.00014 2.47038 63.4677 1.03593 0.524642 28.7808 4.99995e-006 2.59123e-006 -179.57 0.977807 90.9218 -5.63062 0.685574 0.0344015 61.8973 -0.799443 -0.359077 28.7808 1.568e-005 2.62151e-005 0.0518195 6.32678 -90.1898 14.2217 0.0482831 -0.153087 2.55076 0.0420826 -0.155065 -19.9844 0.0852361 -0.131462 0.0282898 0.0852227 -0.131467 100.745 -19.6463 -85.6144 15.9902 46.5776 -41.0446 -3.27478 0.00467868 -4.91074 -5.37983 -0.320018 -0.0162405 -79.0482 -21.7445 94.1852 5.27123 -44.0948 -23.3493 -1.42359 45.792 -0.00392309 1.19211 -0.0162611 -2.01031 0.359484 0.122943 0.34688 -6.40316 0.0680028 0.0746277 
1.02383 95.8572 -5.7265 118.469 -89.9273 118.642 -171.731 2.71802 90.329 -9.05978 8.09439 2.48843 63.5067 1.25301 0.652275 28.7808 4.99995e-006 2.59123e-006 -179.572 1.11713 90.9495 -5.80475 0.688798 0.0341319 61.8612 -0.865385 -0.395344 28.7808 1.568e-005 2.62151e-005 0.0516575 6.32713 -90.2171 14.2194 0.0496171 -0.157914 2.54841 0.0433161 -0.159637 -19.9867 0.0875894 -0.137823 0.0259386 0.087575 -0.137841 100.736 -19.6935 -85.6334 16.0114 46.5276 -41.0173 -3.27478 0.00467868 -4.91074 -5.37983 -0.320018 -0.0162405 -79.0424 -21.7187 94.1972 5.27323 -44.046 -23.2074 -1.44365 45.8361 -0.0039262 1.26936 -0.0186086 -1.93436 0.399766 0.0810239 0.251806 -6.50188 0.0373825 0.163082 
